<?xml version="1.0" encoding="UTF-8"?><svg id="Layer_5" xmlns="http://www.w3.org/2000/svg" viewBox="0 0 1080 1080"><defs><style>.cls-1{fill:rgba(1,1,1,.5);}.cls-1,.cls-2,.cls-3,.cls-4,.cls-5,.cls-6,.cls-7,.cls-8,.cls-9{stroke-width:0px;}.cls-2{fill:#cdebed;}.cls-3{fill:#eba5b1;}.cls-4{fill:#eef8fc;}.cls-5{fill:#f1ca6f;}.cls-6{fill:#5fafb8;}.cls-7{fill:#fff;}.cls-8{fill:#c7e7de;}.cls-9{fill:#55aedf;}</style></defs><g id="Layer0_0_MEMBER_0_MEMBER_0_FILL"><path class="cls-1" d="M711.23,675.65c0-5.26-3.19-9.4-9.58-12.42-5.33-2.6-11.44-3.89-18.31-3.89-10.74,0-19.3,3.51-25.68,10.53-6.32,6.95-9.47,16.07-9.47,27.37s2.95,20.59,8.84,27.05c6.1,6.53,14.88,9.79,26.31,9.79,7.23,0,13.61-1.4,19.16-4.21,6.46-3.23,9.68-7.58,9.68-13.05,0-2.46-.84-4.56-2.53-6.32-1.75-1.68-3.82-2.53-6.21-2.53-2.03,0-3.82.6-5.37,1.79-.63.56-1.79,1.93-3.47,4.1-3.02,3.93-6.77,5.89-11.26,5.89s-8.46-1.82-11.26-5.47c-3.16-4.07-4.74-10.03-4.74-17.89s1.54-13.44,4.63-17.37c2.74-3.58,6.53-5.37,11.37-5.37,4.28,0,7.89,1.75,10.84,5.26,1.61,1.96,2.74,3.19,3.37,3.68,1.4,1.12,3.09,1.68,5.05,1.68,2.39,0,4.39-.84,6-2.53,1.75-1.68,2.63-3.72,2.63-6.1M737.65,662.7c-1.75-1.75-3.89-2.63-6.42-2.63-2.53,0-4.67.88-6.42,2.63-1.75,1.82-2.63,4-2.63,6.53v55.15c0,5.4,2.67,8.1,8,8.1h35.26c2.03,0,3.75-.74,5.16-2.21,1.47-1.4,2.21-3.16,2.21-5.26,0-2.03-.74-3.79-2.21-5.26-1.4-1.47-3.12-2.21-5.16-2.21h-25.05v-48.31c0-2.53-.91-4.7-2.74-6.53M813.96,659.33c-10.88,0-19.51,3.4-25.89,10.21-6.25,6.74-9.37,15.75-9.37,27.05s3.09,20.49,9.26,27.16c6.24,6.88,14.88,10.31,25.89,10.31s19.51-3.44,25.89-10.31c6.24-6.74,9.37-15.79,9.37-27.16,0-11.37-3.09-20.38-9.26-27.05-6.32-6.81-14.95-10.21-25.89-10.21M802.48,679.12c2.74-3.58,6.53-5.37,11.37-5.37,4.91,0,8.74,1.79,11.47,5.37,3.09,3.93,4.63,9.75,4.63,17.47s-1.54,13.65-4.63,17.58c-2.74,3.58-6.56,5.37-11.47,5.37-4.84,0-8.63-1.79-11.37-5.37-3.09-3.93-4.63-9.79-4.63-17.58s1.54-13.54,4.63-17.47M919.42,669.12c0-2.53-.88-4.67-2.63-6.42-1.82-1.75-3.96-2.63-6.42-2.63-2.46,0-4.6.88-6.42,2.63-1.75,1.75-2.63,3.89-2.63,6.42v36.73c0,8.77-3.86,13.16-11.58,13.16-7.79,0-11.68-4.39-11.68-13.16v-36.63c0-2.53-.88-4.7-2.63-6.53-1.82-1.75-3.96-2.63-6.42-2.63-2.6,0-4.81.88-6.63,2.63-1.75,1.75-2.63,3.93-2.63,6.53v36c0,19.23,10.03,28.84,30.1,28.84s29.58-9.61,29.58-28.84v-36.1M985.1,668.81c-6.74-5.33-15.86-8-27.37-8h-16.52c-5.33,0-8,2.7-8,8.1v55.47c0,5.4,2.67,8.1,8,8.1h16.52c12.21,0,21.68-3.02,28.42-9.05,7.02-6.17,10.53-15.16,10.53-26.94,0-12.28-3.86-21.51-11.58-27.68M951.21,675.12h6.53c13.33,0,20,7.05,20,21.16,0,8-1.86,13.75-5.58,17.26-3.16,3.02-7.96,4.53-14.42,4.53h-6.53v-42.94M934.68,457.99c0-11.37-3.09-20.38-9.26-27.05-6.32-6.81-14.95-10.21-25.89-10.21-10.88,0-19.51,3.4-25.89,10.21-6.24,6.74-9.37,15.75-9.37,27.05s3.09,20.49,9.26,27.16c6.25,6.88,14.88,10.31,25.89,10.31s19.51-3.44,25.89-10.31c6.24-6.74,9.37-15.79,9.37-27.16M915.53,457.99c0,7.79-1.54,13.65-4.63,17.58-2.74,3.58-6.56,5.37-11.47,5.37-4.84,0-8.63-1.79-11.37-5.37-3.09-3.93-4.63-9.79-4.63-17.58s1.54-13.54,4.63-17.47c2.74-3.58,6.53-5.37,11.37-5.37,4.91,0,8.74,1.79,11.47,5.37,3.09,3.93,4.63,9.75,4.63,17.47M1013.09,457.99c0-11.37-3.09-20.38-9.26-27.05-6.32-6.81-14.95-10.21-25.89-10.21-10.88,0-19.51,3.4-25.89,10.21-6.24,6.74-9.37,15.75-9.37,27.05s3.09,20.49,9.26,27.16c6.25,6.88,14.88,10.31,25.89,10.31s19.51-3.44,25.89-10.31c6.24-6.74,9.37-15.79,9.37-27.16M989.31,440.51c3.09,3.93,4.63,9.75,4.63,17.47s-1.54,13.65-4.63,17.58c-2.74,3.58-6.56,5.37-11.47,5.37-4.84,0-8.63-1.79-11.37-5.37-3.09-3.93-4.63-9.79-4.63-17.58s1.54-13.54,4.63-17.47c2.74-3.58,6.53-5.37,11.37-5.37,4.91,0,8.74,1.79,11.47,5.37M718.6,577.34c0-11.37-3.09-20.38-9.26-27.05-6.32-6.81-14.95-10.21-25.89-10.21s-19.51,3.4-25.89,10.21c-6.24,6.74-9.37,15.75-9.37,27.05s3.09,20.49,9.26,27.16c6.24,6.88,14.88,10.31,25.89,10.31,10.88,0,19.51-3.44,25.89-10.31,6.24-6.74,9.37-15.79,9.37-27.16M694.81,559.87c3.09,3.93,4.63,9.75,4.63,17.47s-1.54,13.65-4.63,17.58c-2.74,3.58-6.56,5.37-11.47,5.37s-8.63-1.79-11.37-5.37c-3.09-3.93-4.63-9.79-4.63-17.58s1.54-13.54,4.63-17.47c2.74-3.58,6.53-5.37,11.37-5.37s8.74,1.79,11.47,5.37M741.96,540.82c-3.44,0-6.35,1.23-8.74,3.68-2.39,2.39-3.58,5.26-3.58,8.63v52.52c0,2.25.81,4.21,2.42,5.89,1.68,1.61,3.68,2.42,6,2.42s4.28-.81,5.89-2.42c1.61-1.68,2.42-3.65,2.42-5.89v-38.42h.53c.84,2.32,2.25,5.09,4.21,8.31l20,32.84c2.25,3.72,5.58,5.58,10,5.58,3.16,0,5.86-1.12,8.1-3.37,2.25-2.32,3.37-5.05,3.37-8.21v-53.26c0-2.32-.81-4.28-2.42-5.89-1.61-1.61-3.54-2.42-5.79-2.42s-4.28.81-5.89,2.42c-1.61,1.61-2.42,3.58-2.42,5.89v37.36h-.53c-1.61-3.65-2.98-6.39-4.1-8.21l-18.95-31.47c-2.46-4-5.96-6-10.53-6M708.91,472.09c0-11.3-6.77-18.38-20.31-21.26l-11.58-2.53c-6.03-1.26-9.05-3.79-9.05-7.58,0-1.75.88-3.19,2.63-4.32,1.75-1.26,4.14-1.89,7.16-1.89,3.93,0,7.47,1.44,10.63,4.32,1.75,1.61,2.98,2.63,3.68,3.05,1.4.84,3.02,1.26,4.84,1.26,2.25,0,4.18-.74,5.79-2.21,1.61-1.47,2.42-3.37,2.42-5.68,0-4.63-3.16-8.35-9.47-11.16-5.26-2.39-11.05-3.58-17.37-3.58-8.91,0-15.96,2.11-21.16,6.32-4.98,4.07-7.47,9.3-7.47,15.68,0,11.37,6.63,18.45,19.89,21.26l11.68,2.53c5.75,1.19,8.63,3.54,8.63,7.05,0,4.49-3.89,6.74-11.68,6.74-4.07,0-7.93-1.26-11.58-3.79-3.65-2.53-6.7-3.79-9.16-3.79-2.39,0-4.42.74-6.1,2.21s-2.53,3.37-2.53,5.68c0,5.12,3.23,9.02,9.68,11.68,5.47,2.25,12.28,3.37,20.42,3.37,10.38,0,18.17-2.39,23.37-7.16,4.42-4.07,6.63-9.47,6.63-16.21M799.64,421.46c-2.53,0-4.67.88-6.42,2.63-1.75,1.82-2.63,4-2.63,6.53v54.94c0,2.46.88,4.6,2.63,6.42,1.75,1.75,3.89,2.63,6.42,2.63s4.67-.88,6.42-2.63,2.74-3.96,2.74-6.42v-20.95h26.21v20.95c0,2.46.88,4.6,2.63,6.42,1.75,1.75,3.89,2.63,6.42,2.63s4.7-.88,6.53-2.63c1.75-1.82,2.63-3.96,2.63-6.42v-54.94c0-2.53-.88-4.7-2.63-6.53-1.82-1.75-4-2.63-6.53-2.63-2.53,0-4.67.88-6.42,2.63-1.75,1.82-2.63,4-2.63,6.53v19.26h-26.21v-19.26c0-2.53-.91-4.7-2.74-6.53-1.75-1.75-3.89-2.63-6.42-2.63M769.96,424.62c-5.33-2.6-11.44-3.89-18.31-3.89-10.74,0-19.3,3.51-25.68,10.53-6.32,6.95-9.47,16.07-9.47,27.37s2.95,20.59,8.84,27.05c6.1,6.53,14.88,9.79,26.31,9.79,7.23,0,13.61-1.4,19.16-4.21,6.46-3.23,9.68-7.58,9.68-13.05,0-2.46-.84-4.56-2.53-6.32-1.75-1.68-3.82-2.53-6.21-2.53-2.03,0-3.82.6-5.37,1.79-.63.56-1.79,1.93-3.47,4.1-3.02,3.93-6.77,5.89-11.26,5.89s-8.46-1.82-11.26-5.47c-3.16-4.07-4.74-10.03-4.74-17.89,0-7.65,1.54-13.44,4.63-17.37,2.74-3.58,6.53-5.37,11.37-5.37,4.28,0,7.89,1.75,10.84,5.26,1.61,1.96,2.74,3.19,3.37,3.68,1.4,1.12,3.09,1.68,5.05,1.68,2.39,0,4.39-.84,6-2.53,1.75-1.68,2.63-3.72,2.63-6.1,0-5.26-3.19-9.4-9.58-12.42M1039.62,424.09c-1.75-1.75-3.89-2.63-6.42-2.63-2.53,0-4.67.88-6.42,2.63-1.75,1.82-2.63,4-2.63,6.53v55.15c0,5.4,2.67,8.1,8,8.1h35.26c2.03,0,3.75-.74,5.16-2.21,1.47-1.4,2.21-3.16,2.21-5.26s-.74-3.79-2.21-5.26c-1.4-1.47-3.12-2.21-5.16-2.21h-25.05v-48.31c0-2.53-.91-4.7-2.74-6.53Z"/></g><g id="Layer0_0_MEMBER_0_MEMBER_1_FILL"><path class="cls-6" d="M413.99,235.81c-1.72-1.63-3.57-3.07-5.56-4.34-31.64-18.08-64.76-18.21-99.38-.41-2.44,1.27-4.61,2.85-6.51,4.75l-148.06,149.54c-.27.18-.5.41-.68.68l-6.78,6.78c-5.24,5.06-7.86,11.21-7.86,18.44v5.29c-.09,1.18-.09,2.35,0,3.53v270.62c0,4.61,1.18,8.9,3.53,12.88,9.13,15.73,20.61,25.4,34.44,29.01,2.44.72,4.93,1.08,7.46,1.08h344.92c2.53,0,5.02-.36,7.46-1.08,15.46-3.8,27.88-15.18,37.29-34.17,1.81-3.62,2.71-7.46,2.71-11.52v-97.48c0-7.05-2.53-13.11-7.59-18.17-5.06-4.97-11.12-7.46-18.17-7.46s-13.2,2.49-18.17,7.46c-5.06,5.06-7.59,11.12-7.59,18.17v92.87H190.68v-259.5c.27-.63.59-1.22.95-1.76l2.03-2.17c2.89-1.99,5.24-4.34,7.05-7.05l135.31-136.66c15.37-6.96,30.14-7,44.34-.14l146.84,147.37v60.74c0,7.14,2.49,13.2,7.46,18.17,5.06,5.06,11.16,7.59,18.3,7.59s13.11-2.53,18.17-7.59c5.06-4.97,7.59-11.03,7.59-18.17v-71.31c0-7.05-2.53-13.11-7.59-18.17l-157.14-157.81Z"/></g><g id="Layer0_0_MEMBER_0_MEMBER_2_MEMBER_0_MEMBER_0_MEMBER_0_FILL"><path class="cls-3" d="M310.22,450.27c-12.83-12.83-25.67-12.83-38.5,0l-46.22,46.22c-12.83,12.83-12.83,25.66,0,38.5l46.22,46.22c12.83,12.83,25.67,12.83,38.5,0l46.22-46.22c12.83-12.83,12.83-25.66,0-38.5l-46.22-46.22Z"/></g><g id="Layer0_0_MEMBER_0_MEMBER_2_MEMBER_1_MEMBER_0_FILL"><path class="cls-7" d="M341.57,516.92l-52.93-52.92-52.93,52.92,52.93,52.92,52.93-52.92Z"/></g><g id="Layer0_0_MEMBER_0_MEMBER_3_MEMBER_0_FILL"><path class="cls-5" d="M406.35,368.21c-15.73-9.04-28.11-5.65-37.15,10.17l-32.81,56.67c-9.04,15.73-5.69,28.11,10.03,37.15l56.67,32.67c15.73,9.13,28.11,5.83,37.15-9.9l32.81-56.67c9.04-15.82,5.69-28.29-10.03-37.42l-56.67-32.67Z"/></g><g id="Layer0_0_MEMBER_0_MEMBER_3_MEMBER_1_FILL"><path class="cls-7" d="M422.98,489.79l-.8-92.55-75.7,48.42,76.5,44.13Z"/></g><g id="Layer0_0_MEMBER_0_MEMBER_4_MEMBER_0_MEMBER_0_FILL"><path class="cls-9" d="M388.49,521.74c-18.17,0-27.25,9.08-27.25,27.25v65.48c0,18.17,9.08,27.25,27.25,27.25h65.48c18.17,0,27.25-9.08,27.25-27.25v-65.48c0-18.17-9.08-27.25-27.25-27.25h-65.48Z"/></g><g id="Layer0_0_MEMBER_0_MEMBER_4_MEMBER_1_MEMBER_0_FILL"><path class="cls-7" d="M447.59,609.93c7.58-7.58,11.36-16.72,11.36-27.43,0-10.71-3.79-19.85-11.36-27.43-7.58-7.58-16.72-11.37-27.42-11.37s-19.85,3.79-27.43,11.37c-7.58,7.58-11.36,16.72-11.36,27.43s3.79,19.85,11.36,27.43c7.58,7.58,16.72,11.37,27.43,11.37s19.85-3.79,27.42-11.37Z"/></g><g id="Layer0_0_MEMBER_0_MEMBER_5_FILL"><path class="cls-1" d="M495.6,668.72c-14.01,0-26.85,2.94-38.51,8.81-8.04-25.67-22.33-48.72-42.84-69.15-33.62-33.71-74.25-50.57-121.89-50.57s-88.13,16.86-121.75,50.57c-33.71,33.62-50.57,74.21-50.57,121.75,0,12.02,1.13,23.68,3.39,34.98-21.96,7.59-41.8,20.25-59.52,37.96-17.26,17.35-29.78,36.65-37.56,57.89h681.84c-7.77-19.98-19.89-38.19-36.34-54.64-25.58-25.67-55.68-40.67-90.3-45.01.09-2.17.14-4.29.14-6.37,0-23.77-8.45-44.11-25.35-61.01-16.72-16.81-36.97-25.22-60.74-25.22Z"/></g><g id="Layer0_0_MEMBER_0_MEMBER_6_FILL"><path class="cls-4" d="M558.4,761.59c0-23.77-8.45-44.11-25.35-61.01-16.72-16.81-36.97-25.22-60.74-25.22-14.01,0-26.85,2.94-38.51,8.81-8.04-25.67-22.33-48.72-42.84-69.15-33.62-33.71-74.25-50.57-121.89-50.57s-88.13,16.86-121.75,50.57c-33.71,33.62-50.57,74.21-50.57,121.75,0,12.02,1.13,23.68,3.39,34.98-21.96,7.59-41.8,20.25-59.52,37.96-15.73,15.91-27.52,33.4-35.39,52.47h677.5c-7.77-17.9-19.16-34.3-34.17-49.22-25.58-25.67-55.68-40.67-90.3-45.01.09-2.17.14-4.29.14-6.37Z"/></g><g id="Layer0_0_MEMBER_0_MEMBER_6_MEMBER_0_FILL"><path class="cls-2" d="M194.98,621.24c-4.43,4.43-8.41,9.04-11.93,13.83,24.22-23.59,53.33-35.38,87.31-35.38s64.13,12.2,88.53,36.6c24.49,24.49,36.74,54.05,36.74,88.66,0,3.89-.14,7.73-.41,11.52,2.44-9.76,3.66-20.02,3.66-30.77,0-32.99-11.66-61.14-34.98-84.46-23.32-23.32-51.47-34.98-84.46-34.98s-61.14,11.66-84.46,34.98Z"/></g><g id="Layer0_0_MEMBER_0_MEMBER_6_MEMBER_1_FILL"><path class="cls-2" d="M539.47,788.94c0,2.71-.09,5.38-.27,8,1.72-6.69,2.58-13.78,2.58-21.28,0-22.87-8.09-42.39-24.27-58.57-16.18-16.18-35.7-24.27-58.57-24.27-22.87,0-42.39,8.09-58.57,24.27-3.07,3.07-5.83,6.28-8.27,9.63,16.81-16.36,37.01-24.54,60.6-24.54s44.38,8.45,61.28,25.35c16.99,16.99,25.49,37.46,25.49,61.41Z"/></g><g id="Layer0_0_MEMBER_0_MEMBER_6_MEMBER_2_FILL"><path class="cls-2" d="M546.93,795.72c23.95,0,47.23,8.45,69.82,25.35,15.55,11.66,27.66,24.9,36.33,39.72h4.47c-8.32-19.25-21.92-35.97-40.81-50.16-21.69-16.18-43.97-24.27-66.84-24.27-22.87,0-39.63,8.09-50.3,24.27-2.08,3.07-3.75,6.28-5.02,9.63,11.3-16.36,28.74-24.54,52.33-24.54Z"/></g><g id="Layer0_0_MEMBER_0_MEMBER_7_FILL"><path class="cls-6" d="M706.81,671.44c0-5.26-3.19-9.4-9.58-12.42-5.33-2.6-11.44-3.89-18.31-3.89-10.74,0-19.3,3.51-25.68,10.53-6.32,6.95-9.47,16.07-9.47,27.37s2.95,20.59,8.84,27.05c6.1,6.53,14.88,9.79,26.31,9.79,7.23,0,13.61-1.4,19.16-4.21,6.46-3.23,9.68-7.58,9.68-13.05,0-2.46-.84-4.56-2.53-6.32-1.75-1.68-3.82-2.53-6.21-2.53-2.03,0-3.82.6-5.37,1.79-.63.56-1.79,1.93-3.47,4.1-3.02,3.93-6.77,5.89-11.26,5.89s-8.46-1.82-11.26-5.47c-3.16-4.07-4.74-10.03-4.74-17.89s1.54-13.44,4.63-17.37c2.74-3.58,6.53-5.37,11.37-5.37,4.28,0,7.89,1.75,10.84,5.26,1.61,1.96,2.74,3.19,3.37,3.68,1.4,1.12,3.09,1.68,5.05,1.68,2.39,0,4.39-.84,6-2.53,1.75-1.68,2.63-3.72,2.63-6.1M735.96,665.02c0-2.53-.91-4.7-2.74-6.53-1.75-1.75-3.89-2.63-6.42-2.63-2.53,0-4.67.88-6.42,2.63-1.75,1.82-2.63,4-2.63,6.53v55.15c0,5.4,2.67,8.1,8,8.1h35.26c2.03,0,3.75-.74,5.16-2.21,1.47-1.4,2.21-3.16,2.21-5.26s-.74-3.79-2.21-5.26c-1.4-1.47-3.12-2.21-5.16-2.21h-25.05v-48.31M809.54,655.12c-10.88,0-19.51,3.4-25.89,10.21-6.24,6.74-9.37,15.75-9.37,27.05s3.09,20.49,9.26,27.16c6.25,6.88,14.88,10.31,25.89,10.31s19.51-3.44,25.89-10.31c6.24-6.74,9.37-15.79,9.37-27.16s-3.09-20.38-9.26-27.05c-6.32-6.81-14.95-10.21-25.89-10.21M798.06,674.91c2.74-3.58,6.53-5.37,11.37-5.37,4.91,0,8.74,1.79,11.47,5.37,3.09,3.93,4.63,9.75,4.63,17.47s-1.54,13.65-4.63,17.58c-2.74,3.58-6.56,5.37-11.47,5.37-4.84,0-8.63-1.79-11.37-5.37-3.09-3.93-4.63-9.79-4.63-17.58s1.54-13.54,4.63-17.47M915,664.91c0-2.53-.88-4.67-2.63-6.42-1.82-1.75-3.96-2.63-6.42-2.63-2.46,0-4.6.88-6.42,2.63-1.75,1.75-2.63,3.89-2.63,6.42v36.73c0,8.77-3.86,13.16-11.58,13.16-7.79,0-11.68-4.39-11.68-13.16v-36.63c0-2.53-.88-4.7-2.63-6.53-1.82-1.75-3.96-2.63-6.42-2.63-2.6,0-4.81.88-6.63,2.63-1.75,1.75-2.63,3.93-2.63,6.53v36c0,19.23,10.03,28.84,30.1,28.84s29.58-9.61,29.58-28.84v-36.1M980.68,664.6c-6.74-5.33-15.86-8-27.37-8h-16.52c-5.33,0-8,2.7-8,8.1v55.47c0,5.4,2.67,8.1,8,8.1h16.52c12.21,0,21.68-3.02,28.42-9.05,7.02-6.17,10.53-15.16,10.53-26.94,0-12.28-3.86-21.51-11.58-27.68M946.79,670.91h6.53c13.33,0,20,7.05,20,21.16,0,8-1.86,13.75-5.58,17.26-3.16,3.02-7.96,4.53-14.42,4.53h-6.53v-42.94M930.26,453.78c0-11.37-3.09-20.38-9.26-27.05-6.32-6.81-14.95-10.21-25.89-10.21-10.88,0-19.51,3.4-25.89,10.21-6.24,6.74-9.37,15.75-9.37,27.05,0,11.44,3.09,20.49,9.26,27.16,6.24,6.88,14.88,10.31,25.89,10.31s19.51-3.44,25.89-10.31c6.25-6.74,9.37-15.79,9.37-27.16M906.47,436.3c3.09,3.93,4.63,9.75,4.63,17.47s-1.54,13.65-4.63,17.58c-2.74,3.58-6.56,5.37-11.47,5.37-4.84,0-8.63-1.79-11.37-5.37-3.09-3.93-4.63-9.79-4.63-17.58s1.54-13.54,4.63-17.47c2.74-3.58,6.53-5.37,11.37-5.37,4.91,0,8.74,1.79,11.47,5.37M1008.67,453.78c0-11.37-3.09-20.38-9.26-27.05-6.32-6.81-14.95-10.21-25.89-10.21-10.88,0-19.51,3.4-25.89,10.21-6.24,6.74-9.37,15.75-9.37,27.05,0,11.44,3.09,20.49,9.26,27.16,6.24,6.88,14.88,10.31,25.89,10.31s19.51-3.44,25.89-10.31c6.25-6.74,9.37-15.79,9.37-27.16M962.05,471.35c-3.09-3.93-4.63-9.79-4.63-17.58s1.54-13.54,4.63-17.47c2.74-3.58,6.53-5.37,11.37-5.37,4.91,0,8.74,1.79,11.47,5.37,3.09,3.93,4.63,9.75,4.63,17.47s-1.54,13.65-4.63,17.58c-2.74,3.58-6.56,5.37-11.47,5.37-4.84,0-8.63-1.79-11.37-5.37M687.65,437.67c1.4.84,3.02,1.26,4.84,1.26,2.25,0,4.18-.74,5.79-2.21,1.61-1.47,2.42-3.37,2.42-5.68,0-4.63-3.16-8.35-9.47-11.16-5.26-2.39-11.05-3.58-17.37-3.58-8.91,0-15.96,2.11-21.16,6.32-4.98,4.07-7.47,9.3-7.47,15.68,0,11.37,6.63,18.45,19.89,21.26l11.68,2.53c5.75,1.19,8.63,3.54,8.63,7.05,0,4.49-3.89,6.74-11.68,6.74-4.07,0-7.93-1.26-11.58-3.79s-6.7-3.79-9.16-3.79c-2.39,0-4.42.74-6.1,2.21s-2.53,3.37-2.53,5.68c0,5.12,3.23,9.02,9.68,11.68,5.47,2.25,12.28,3.37,20.42,3.37,10.38,0,18.17-2.39,23.37-7.16,4.42-4.07,6.63-9.47,6.63-16.21,0-11.3-6.77-18.38-20.31-21.26l-11.58-2.53c-6.03-1.26-9.05-3.79-9.05-7.58,0-1.75.88-3.19,2.63-4.32,1.75-1.26,4.14-1.89,7.16-1.89,3.93,0,7.47,1.44,10.63,4.32,1.75,1.61,2.98,2.63,3.68,3.05M846.16,419.88c-1.82-1.75-4-2.63-6.53-2.63-2.53,0-4.67.88-6.42,2.63-1.75,1.82-2.63,4-2.63,6.53v19.26h-26.21v-19.26c0-2.53-.91-4.7-2.74-6.53-1.75-1.75-3.89-2.63-6.42-2.63-2.53,0-4.67.88-6.42,2.63-1.75,1.82-2.63,4-2.63,6.53v54.94c0,2.46.88,4.6,2.63,6.42,1.75,1.75,3.89,2.63,6.42,2.63s4.67-.88,6.42-2.63c1.82-1.82,2.74-3.96,2.74-6.42v-20.95h26.21v20.95c0,2.46.88,4.6,2.63,6.42,1.75,1.75,3.89,2.63,6.42,2.63s4.7-.88,6.53-2.63c1.75-1.82,2.63-3.96,2.63-6.42v-54.94c0-2.53-.88-4.7-2.63-6.53M765.54,420.41c-5.33-2.6-11.44-3.89-18.31-3.89-10.74,0-19.3,3.51-25.68,10.53-6.32,6.95-9.47,16.07-9.47,27.37s2.95,20.59,8.84,27.05c6.1,6.53,14.88,9.79,26.31,9.79,7.23,0,13.61-1.4,19.16-4.21,6.46-3.23,9.68-7.58,9.68-13.05,0-2.46-.84-4.56-2.53-6.32-1.75-1.68-3.82-2.53-6.21-2.53-2.03,0-3.82.6-5.37,1.79-.63.56-1.79,1.93-3.47,4.1-3.02,3.93-6.77,5.89-11.26,5.89s-8.46-1.82-11.26-5.47c-3.16-4.07-4.74-10.03-4.74-17.89,0-7.65,1.54-13.44,4.63-17.37,2.74-3.58,6.53-5.37,11.37-5.37,4.28,0,7.89,1.75,10.84,5.26,1.61,1.96,2.74,3.19,3.37,3.68,1.4,1.12,3.09,1.68,5.05,1.68,2.39,0,4.39-.84,6-2.53,1.75-1.68,2.63-3.72,2.63-6.1,0-5.26-3.19-9.4-9.58-12.42M1035.2,419.88c-1.75-1.75-3.89-2.63-6.42-2.63-2.53,0-4.67.88-6.42,2.63-1.75,1.82-2.63,4-2.63,6.53v55.15c0,5.4,2.67,8.1,8,8.1h35.26c2.03,0,3.75-.74,5.16-2.21,1.47-1.4,2.21-3.16,2.21-5.26,0-2.03-.74-3.79-2.21-5.26-1.4-1.47-3.12-2.21-5.16-2.21h-25.05v-48.31c0-2.53-.91-4.7-2.74-6.53Z"/><path class="cls-8" d="M714.18,573.13c0-11.37-3.09-20.38-9.26-27.05-6.32-6.81-14.95-10.21-25.89-10.21s-19.51,3.4-25.89,10.21c-6.24,6.74-9.37,15.75-9.37,27.05s3.09,20.49,9.26,27.16c6.24,6.88,14.88,10.31,25.89,10.31,10.88,0,19.51-3.44,25.89-10.31,6.24-6.74,9.37-15.79,9.37-27.16M690.39,555.66c3.09,3.93,4.63,9.75,4.63,17.47s-1.54,13.65-4.63,17.58c-2.74,3.58-6.56,5.37-11.47,5.37s-8.63-1.79-11.37-5.37c-3.09-3.93-4.63-9.79-4.63-17.58s1.54-13.54,4.63-17.47c2.74-3.58,6.53-5.37,11.37-5.37s8.74,1.79,11.47,5.37M748.07,542.61c-2.46-4-5.96-6-10.53-6-3.44,0-6.35,1.23-8.74,3.68-2.39,2.39-3.58,5.26-3.58,8.63v52.52c0,2.25.81,4.21,2.42,5.89,1.68,1.61,3.68,2.42,6,2.42s4.28-.81,5.89-2.42c1.61-1.68,2.42-3.65,2.42-5.89v-38.42h.53c.84,2.32,2.25,5.09,4.21,8.31l20,32.84c2.25,3.72,5.58,5.58,10,5.58,3.16,0,5.86-1.12,8.1-3.37,2.25-2.32,3.37-5.05,3.37-8.21v-53.26c0-2.32-.81-4.28-2.42-5.89-1.61-1.61-3.54-2.42-5.79-2.42s-4.28.81-5.89,2.42c-1.61,1.61-2.42,3.58-2.42,5.89v37.36h-.53c-1.61-3.65-2.98-6.39-4.1-8.21l-18.95-31.47Z"/></g><g id="Layer0_0_MEMBER_1_FILL"><path class="cls-1" d="M657.13,761.95c-.49.49-.74,1.05-.74,1.68v16.74c0,.63.21,1.19.63,1.68.49.42,1.05.63,1.68.63.56,0,1.05-.18,1.47-.53.42-.35.7-.77.84-1.26,1.05,1.26,2.53,1.89,4.42,1.89s3.33-.7,4.53-2.11c1.19-1.47,1.79-3.44,1.79-5.89,0-2.18-.49-3.93-1.47-5.26-1.05-1.4-2.6-2.11-4.63-2.11s-3.37.81-4.21,2.42v-6.21c0-.63-.25-1.19-.74-1.68-.49-.56-1.09-.84-1.79-.84s-1.3.28-1.79.84M663.97,779.43c-1.82,0-2.74-1.44-2.74-4.32s.95-4.21,2.84-4.21c.77,0,1.37.32,1.79.95.56.7.84,1.79.84,3.26s-.28,2.49-.84,3.26c-.49.7-1.12,1.05-1.89,1.05M813.01,769.53c-1.4-1.47-3.33-2.21-5.79-2.21s-4.39.74-5.79,2.21c-1.33,1.4-2,3.26-2,5.58s.67,4.18,2,5.58c1.4,1.47,3.3,2.21,5.68,2.21s4.39-.74,5.79-2.21c1.4-1.4,2.11-3.26,2.11-5.58s-.67-4.18-2-5.58M807.22,770.9c1.82,0,2.74,1.4,2.74,4.21s-.91,4.21-2.74,4.21-2.74-1.4-2.74-4.21.91-4.21,2.74-4.21M785.75,761.95c-.49.49-.74,1.05-.74,1.68v16.52c0,.7.25,1.3.74,1.79.49.49,1.09.74,1.79.74s1.3-.25,1.79-.74c.49-.49.74-1.09.74-1.79v-16.52c0-.63-.25-1.19-.74-1.68-.49-.56-1.09-.84-1.79-.84s-1.3.28-1.79.84M827.01,763.11c0-1.26-.81-1.89-2.42-1.89-2.18,0-3.75.49-4.74,1.47-.91.98-1.37,2.49-1.37,4.53v.53h-.74c-.49,0-.88.14-1.16.42-.35.35-.53.74-.53,1.16,0,.49.18.91.53,1.26.28.28.67.42,1.16.42h.74v9.16c0,.7.25,1.3.74,1.79.49.49,1.09.74,1.79.74s1.3-.25,1.79-.74c.49-.49.74-1.09.74-1.79v-9.16h1.47c.49,0,.88-.14,1.16-.42.35-.35.53-.77.53-1.26,0-.42-.18-.81-.53-1.16-.28-.28-.67-.42-1.16-.42h-1.47v-.63c0-.77.14-1.3.42-1.58s.77-.42,1.47-.42c.49,0,.88-.21,1.16-.63.28-.35.42-.81.42-1.37M850.16,762.69c-1.54-.77-3.3-1.16-5.26-1.16-3.02,0-5.44,1.02-7.26,3.05-1.82,1.96-2.74,4.56-2.74,7.79,0,3.37.84,5.96,2.53,7.79,1.75,1.82,4.25,2.74,7.47,2.74,2.11,0,3.93-.39,5.47-1.16,1.89-.91,2.84-2.18,2.84-3.79,0-.7-.25-1.3-.74-1.79-.49-.49-1.09-.74-1.79-.74-.63,0-1.16.18-1.58.53-.14.21-.46.6-.95,1.16-.84,1.19-1.93,1.79-3.26,1.79s-2.39-.53-3.16-1.58c-.91-1.19-1.37-2.91-1.37-5.16,0-2.18.42-3.82,1.26-4.95.84-1.05,1.93-1.58,3.26-1.58,1.26,0,2.32.53,3.16,1.58.42.56.74.91.95,1.05.42.28.88.42,1.37.42.7,0,1.3-.25,1.79-.74s.74-1.05.74-1.68c0-1.54-.91-2.74-2.74-3.58M720.81,775.11c0-2.81.88-4.21,2.63-4.21.7,0,1.4.32,2.11.95.63.63,1.26.95,1.89.95,1.26,0,1.89-.67,1.89-2,0-1.19-.63-2.11-1.89-2.74-1.05-.49-2.32-.74-3.79-.74-2.53,0-4.49.77-5.89,2.32-1.33,1.4-2,3.23-2,5.47,0,2.46.63,4.35,1.89,5.68,1.26,1.4,3.16,2.11,5.68,2.11,1.68,0,3.09-.28,4.21-.84,1.4-.63,2.11-1.54,2.11-2.74,0-1.4-.7-2.11-2.11-2.11-.63,0-1.3.35-2,1.05s-1.4,1.05-2.11,1.05c-1.75,0-2.63-1.4-2.63-4.21M687.65,770.59l.21-.84c0-.63-.25-1.16-.74-1.58-.42-.49-.95-.74-1.58-.74-1.12,0-1.82.53-2.11,1.58l-1.79,5.47c-.21.56-.39,1.23-.53,2l-.21.95h-.11l-.11-.95c-.07-.56-.25-1.23-.53-2l-1.79-5.37c-.21-.49-.49-.88-.84-1.16-.49-.35-.98-.53-1.47-.53-.7,0-1.3.25-1.79.74-.42.49-.63,1.09-.63,1.79,0,.28.04.56.11.84l4.53,11.89-1.05,2.95c-.14.28-.21.56-.21.84,0,.63.21,1.16.63,1.58.49.42,1.05.63,1.68.63,1.05,0,1.75-.49,2.11-1.47l6.21-16.63M705.02,761.53c-2.53,0-4.53.6-6,1.79-1.4,1.12-2.11,2.63-2.11,4.53,0,3.23,1.89,5.23,5.68,6l3.37.74c1.61.35,2.42,1.02,2.42,2,0,1.33-1.12,2-3.37,2-1.12,0-2.21-.39-3.26-1.16-1.05-.7-1.93-1.05-2.63-1.05s-1.3.21-1.79.63c-.42.42-.63.95-.63,1.58,0,1.47.91,2.6,2.74,3.37,1.54.63,3.47.95,5.79.95,3.02,0,5.26-.67,6.74-2,1.26-1.19,1.89-2.74,1.89-4.63,0-3.23-1.93-5.26-5.79-6.1l-3.37-.74c-1.68-.35-2.53-1.05-2.53-2.11,0-.49.25-.91.74-1.26s1.16-.53,2-.53c1.12,0,2.14.42,3.05,1.26.49.42.84.7,1.05.84.42.21.88.32,1.37.32.63,0,1.19-.21,1.68-.63.42-.42.63-.95.63-1.58,0-1.33-.88-2.42-2.63-3.26-1.54-.63-3.23-.95-5.05-.95M765.01,775.11c0-2.32-.67-4.18-2-5.58-1.4-1.47-3.33-2.21-5.79-2.21s-4.39.74-5.79,2.21c-1.33,1.4-2,3.26-2,5.58s.67,4.18,2,5.58c1.4,1.47,3.3,2.21,5.68,2.21s4.39-.74,5.79-2.21c1.4-1.4,2.11-3.26,2.11-5.58M754.49,775.11c0-2.81.91-4.21,2.74-4.21s2.74,1.4,2.74,4.21-.91,4.21-2.74,4.21-2.74-1.4-2.74-4.21M768.8,769.53c-1.33,1.4-2,3.26-2,5.58s.67,4.18,2,5.58c1.4,1.47,3.3,2.21,5.68,2.21s4.39-.74,5.79-2.21c1.4-1.4,2.11-3.26,2.11-5.58s-.67-4.18-2-5.58c-1.4-1.47-3.33-2.21-5.79-2.21s-4.39.74-5.79,2.21M774.59,770.9c1.82,0,2.74,1.4,2.74,4.21s-.91,4.21-2.74,4.21-2.74-1.4-2.74-4.21.91-4.21,2.74-4.21M737.23,763.64c0-.63-.25-1.19-.74-1.68-.49-.56-1.09-.84-1.79-.84s-1.3.28-1.79.84c-.49.49-.74,1.05-.74,1.68v16.52c0,.7.25,1.3.74,1.79.49.49,1.09.74,1.79.74s1.3-.25,1.79-.74c.49-.49.74-1.09.74-1.79v-5.58c0-2.25.81-3.37,2.42-3.37,1.4,0,2.11.91,2.11,2.74v6.21c0,.7.25,1.3.74,1.79.49.49,1.09.74,1.79.74s1.3-.25,1.79-.74c.49-.49.74-1.09.74-1.79v-7.05c0-3.86-1.72-5.79-5.16-5.79-2.11,0-3.58.88-4.42,2.63v-6.32M959.21,767.32c-2.03,0-3.65.42-4.84,1.26-1.26.84-1.89,2.03-1.89,3.58,0,2.39,1.65,3.93,4.95,4.63l1.89.32c1.05.21,1.58.6,1.58,1.16,0,.91-.6,1.37-1.79,1.37-.91,0-1.82-.35-2.74-1.05-.91-.7-1.65-1.05-2.21-1.05-1.33,0-2,.74-2,2.21,0,1.05.67,1.86,2,2.42,1.19.49,2.77.74,4.74.74,2.46,0,4.25-.42,5.37-1.26.91-.77,1.37-1.96,1.37-3.58,0-2.46-1.54-4.03-4.63-4.74l-2.11-.42c-1.12-.21-1.68-.6-1.68-1.16,0-.77.6-1.16,1.79-1.16.98,0,1.82.28,2.53.84.7.63,1.33.95,1.89.95.49,0,.88-.18,1.16-.53.28-.35.42-.74.42-1.16,0-.98-.63-1.79-1.89-2.42-1.19-.63-2.49-.95-3.89-.95M870.48,775.11c0-2.32-.67-4.18-2-5.58-1.4-1.47-3.33-2.21-5.79-2.21s-4.39.74-5.79,2.21c-1.33,1.4-2,3.26-2,5.58,0,2.32.67,4.18,2,5.58,1.4,1.47,3.3,2.21,5.68,2.21s4.39-.74,5.79-2.21c1.4-1.4,2.11-3.26,2.11-5.58M862.69,770.9c1.82,0,2.74,1.4,2.74,4.21,0,2.81-.91,4.21-2.74,4.21s-2.74-1.4-2.74-4.21.91-4.21,2.74-4.21M873.74,768.16c-.42.49-.63,1.05-.63,1.68v10.31c0,.7.25,1.3.74,1.79.49.49,1.09.74,1.79.74s1.3-.25,1.79-.74c.49-.49.74-1.09.74-1.79v-5.58c0-2.25.81-3.37,2.42-3.37,1.4,0,2.11.91,2.11,2.74v6.21c0,.7.25,1.3.74,1.79.49.49,1.09.74,1.79.74s1.3-.25,1.79-.74c.49-.49.74-1.09.74-1.79v-7.05c0-3.79-1.72-5.68-5.16-5.68-2.25,0-3.86.91-4.84,2.74v-.32c0-.63-.21-1.19-.63-1.68-.49-.49-1.05-.74-1.68-.74s-1.19.25-1.68.74M937.42,769.53c-1.05-1.4-2.53-2.11-4.42-2.11-2.03,0-3.65.84-4.84,2.53v-.21c0-.63-.25-1.16-.74-1.58-.42-.49-.95-.74-1.58-.74s-1.19.25-1.68.74c-.42.42-.63.95-.63,1.58v16.52c0,.63.25,1.19.74,1.68.49.56,1.09.84,1.79.84s1.3-.28,1.79-.84c.49-.49.74-1.05.74-1.68v-4.84c.98.91,2.18,1.37,3.58,1.37,2.03,0,3.65-.7,4.84-2.11,1.26-1.47,1.89-3.44,1.89-5.89,0-2.11-.49-3.86-1.47-5.26M928.37,775.11c0-1.4.28-2.46.84-3.16.49-.7,1.16-1.05,2-1.05,1.75,0,2.63,1.4,2.63,4.21,0,1.4-.28,2.49-.84,3.26-.49.7-1.12,1.05-1.89,1.05-1.82,0-2.74-1.44-2.74-4.32M940.58,768.16c-.28.35-.42.77-.42,1.26,0,.42.14.81.42,1.16.35.28.74.42,1.16.42h.84v6.53c-.07,1.82.25,3.12.95,3.89.77.91,2.03,1.37,3.79,1.37,1.12,0,1.93-.07,2.42-.21.84-.35,1.26-.95,1.26-1.79,0-.77-.67-1.33-2-1.68-.98-.28-1.47-.95-1.47-2v-6.1h1.47c.49,0,.88-.14,1.16-.42.35-.35.53-.77.53-1.26,0-.42-.18-.81-.53-1.16-.28-.28-.67-.42-1.16-.42h-1.58v-1.89c0-.63-.21-1.19-.63-1.68-.49-.42-1.05-.63-1.68-.63-.56,0-1.09.21-1.58.63-.42.42-.67.91-.74,1.47l-.11,2.11h-.95c-.42,0-.81.14-1.16.42M901.95,772.8c1.26,0,1.89-.67,1.89-2,0-1.19-.63-2.11-1.89-2.74-1.05-.49-2.32-.74-3.79-.74-2.53,0-4.49.77-5.89,2.32-1.33,1.4-2,3.23-2,5.47,0,2.46.63,4.35,1.89,5.68,1.26,1.4,3.16,2.11,5.68,2.11,1.68,0,3.09-.28,4.21-.84,1.4-.63,2.11-1.54,2.11-2.74,0-1.4-.7-2.11-2.11-2.11-.63,0-1.3.35-2,1.05-.7.7-1.4,1.05-2.11,1.05-1.75,0-2.63-1.4-2.63-4.21s.88-4.21,2.63-4.21c.7,0,1.4.32,2.11.95.63.63,1.26.95,1.89.95M918.68,776.48c.84,0,1.44-.21,1.79-.63.28-.42.42-1.02.42-1.79,0-1.75-.63-3.26-1.89-4.53-1.4-1.47-3.23-2.21-5.47-2.21s-4.18.74-5.58,2.21c-1.4,1.47-2.11,3.33-2.11,5.58,0,2.39.74,4.28,2.21,5.68,1.47,1.4,3.51,2.11,6.1,2.11,1.47,0,2.74-.25,3.79-.74,1.12-.56,1.68-1.37,1.68-2.42,0-.56-.18-1.05-.53-1.47-.42-.35-.91-.53-1.47-.53-.49,0-1.09.25-1.79.74-.7.56-1.4.84-2.11.84-.84,0-1.54-.25-2.11-.74-.56-.56-.88-1.26-.95-2.11h8M911.53,771.43c.49-.49,1.12-.74,1.89-.74s1.37.25,1.79.74c.49.49.77,1.16.84,2h-5.37c.07-.84.35-1.51.84-2Z"/></g><g id="Layer0_0_MEMBER_2_FILL"><path class="cls-6" d="M685.02,766.17c-.42-.49-.95-.74-1.58-.74-1.12,0-1.82.53-2.11,1.58l-1.79,5.47c-.21.56-.39,1.23-.53,2l-.21.95h-.11l-.11-.95c-.07-.56-.25-1.23-.53-2l-1.79-5.37c-.21-.49-.49-.88-.84-1.16-.49-.35-.98-.53-1.47-.53-.7,0-1.3.25-1.79.74-.42.49-.63,1.09-.63,1.79,0,.28.04.56.11.84l4.53,11.89-1.05,2.95c-.14.28-.21.56-.21.84,0,.63.21,1.16.63,1.58.49.42,1.05.63,1.68.63,1.05,0,1.75-.49,2.11-1.47l6.21-16.63.21-.84c0-.63-.25-1.16-.74-1.58M659.34,761.64c0-.63-.25-1.19-.74-1.68-.49-.56-1.09-.84-1.79-.84s-1.3.28-1.79.84c-.49.49-.74,1.05-.74,1.68v16.74c0,.63.21,1.19.63,1.68.49.42,1.05.63,1.68.63.56,0,1.05-.18,1.47-.53.42-.35.7-.77.84-1.26,1.05,1.26,2.53,1.89,4.42,1.89s3.33-.7,4.53-2.11c1.19-1.47,1.79-3.44,1.79-5.89,0-2.18-.49-3.93-1.47-5.26-1.05-1.4-2.6-2.11-4.63-2.11s-3.37.81-4.21,2.42v-6.21M664.6,773.11c0,1.4-.28,2.49-.84,3.26-.49.7-1.12,1.05-1.89,1.05-1.82,0-2.74-1.44-2.74-4.32s.95-4.21,2.84-4.21c.77,0,1.37.32,1.79.95.56.7.84,1.79.84,3.26M810.9,767.53c-1.4-1.47-3.33-2.21-5.79-2.21s-4.39.74-5.79,2.21c-1.33,1.4-2,3.26-2,5.58s.67,4.18,2,5.58c1.4,1.47,3.3,2.21,5.68,2.21s4.39-.74,5.79-2.21c1.4-1.4,2.11-3.26,2.11-5.58s-.67-4.18-2-5.58M805.12,768.9c1.82,0,2.74,1.4,2.74,4.21s-.91,4.21-2.74,4.21-2.74-1.4-2.74-4.21.91-4.21,2.74-4.21M783.64,759.96c-.49.49-.74,1.05-.74,1.68v16.52c0,.7.25,1.3.74,1.79s1.09.74,1.79.74,1.3-.25,1.79-.74.74-1.09.74-1.79v-16.52c0-.63-.25-1.19-.74-1.68-.49-.56-1.09-.84-1.79-.84s-1.3.28-1.79.84M821.85,763.53c.28-.28.77-.42,1.47-.42.49,0,.88-.21,1.16-.63.28-.35.42-.81.42-1.37,0-1.26-.81-1.89-2.42-1.89-2.18,0-3.75.49-4.74,1.47-.91.98-1.37,2.49-1.37,4.53v.53h-.74c-.49,0-.88.14-1.16.42-.35.35-.53.74-.53,1.16,0,.49.18.91.53,1.26.28.28.67.42,1.16.42h.74v9.16c0,.7.25,1.3.74,1.79s1.09.74,1.79.74,1.3-.25,1.79-.74.74-1.09.74-1.79v-9.16h1.47c.49,0,.88-.14,1.16-.42.35-.35.53-.77.53-1.26,0-.42-.18-.81-.53-1.16-.28-.28-.67-.42-1.16-.42h-1.47v-.63c0-.77.14-1.3.42-1.58M848.06,760.69c-1.54-.77-3.3-1.16-5.26-1.16-3.02,0-5.44,1.02-7.26,3.05-1.82,1.96-2.74,4.56-2.74,7.79,0,3.37.84,5.96,2.53,7.79,1.75,1.82,4.25,2.74,7.47,2.74,2.11,0,3.93-.39,5.47-1.16,1.89-.91,2.84-2.18,2.84-3.79,0-.7-.25-1.3-.74-1.79s-1.09-.74-1.79-.74c-.63,0-1.16.18-1.58.53-.14.21-.46.6-.95,1.16-.84,1.19-1.93,1.79-3.26,1.79s-2.39-.53-3.16-1.58c-.91-1.19-1.37-2.91-1.37-5.16,0-2.18.42-3.82,1.26-4.95.84-1.05,1.93-1.58,3.26-1.58,1.26,0,2.32.53,3.16,1.58.42.56.74.91.95,1.05.42.28.88.42,1.37.42.7,0,1.3-.25,1.79-.74.49-.49.74-1.05.74-1.68,0-1.54-.91-2.74-2.74-3.58M725.33,766.06c-1.05-.49-2.32-.74-3.79-.74-2.53,0-4.49.77-5.89,2.32-1.33,1.4-2,3.23-2,5.47,0,2.46.63,4.35,1.89,5.68,1.26,1.4,3.16,2.11,5.68,2.11,1.68,0,3.09-.28,4.21-.84,1.4-.63,2.11-1.54,2.11-2.74,0-1.4-.7-2.11-2.11-2.11-.63,0-1.3.35-2,1.05-.7.7-1.4,1.05-2.11,1.05-1.75,0-2.63-1.4-2.63-4.21s.88-4.21,2.63-4.21c.7,0,1.4.32,2.11.95.63.63,1.26.95,1.89.95,1.26,0,1.89-.67,1.89-2,0-1.19-.63-2.1-1.89-2.74M702.92,759.53c-2.53,0-4.53.6-6,1.79-1.4,1.12-2.11,2.63-2.11,4.53,0,3.23,1.89,5.23,5.68,6l3.37.74c1.61.35,2.42,1.02,2.42,2,0,1.33-1.12,2-3.37,2-1.12,0-2.21-.39-3.26-1.16-1.05-.7-1.93-1.05-2.63-1.05s-1.3.21-1.79.63c-.42.42-.63.95-.63,1.58,0,1.47.91,2.6,2.74,3.37,1.54.63,3.47.95,5.79.95,3.02,0,5.26-.67,6.74-2,1.26-1.19,1.89-2.74,1.89-4.63,0-3.23-1.93-5.26-5.79-6.1l-3.37-.74c-1.68-.35-2.53-1.05-2.53-2.11,0-.49.25-.91.74-1.26s1.16-.53,2-.53c1.12,0,2.14.42,3.05,1.26.49.42.84.7,1.05.84.42.21.88.32,1.37.32.63,0,1.19-.21,1.68-.63.42-.42.63-.95.63-1.58,0-1.33-.88-2.42-2.63-3.26-1.54-.63-3.23-.95-5.05-.95M766.7,767.53c-1.33,1.4-2,3.26-2,5.58s.67,4.18,2,5.58c1.4,1.47,3.3,2.21,5.68,2.21s4.39-.74,5.79-2.21c1.4-1.4,2.11-3.26,2.11-5.58s-.67-4.18-2-5.58c-1.4-1.47-3.33-2.21-5.79-2.21s-4.39.74-5.79,2.21M772.49,768.9c1.82,0,2.74,1.4,2.74,4.21s-.91,4.21-2.74,4.21-2.74-1.4-2.74-4.21.91-4.21,2.74-4.21M749.33,767.53c-1.33,1.4-2,3.26-2,5.58s.67,4.18,2,5.58c1.4,1.47,3.3,2.21,5.68,2.21s4.39-.74,5.79-2.21c1.4-1.4,2.11-3.26,2.11-5.58s-.67-4.18-2-5.58c-1.4-1.47-3.33-2.21-5.79-2.21s-4.39.74-5.79,2.21M752.38,773.11c0-2.81.91-4.21,2.74-4.21s2.74,1.4,2.74,4.21-.91,4.21-2.74,4.21-2.74-1.4-2.74-4.21M735.12,761.64c0-.63-.25-1.19-.74-1.68-.49-.56-1.09-.84-1.79-.84s-1.3.28-1.79.84c-.49.49-.74,1.05-.74,1.68v16.52c0,.7.25,1.3.74,1.79s1.09.74,1.79.74,1.3-.25,1.79-.74.74-1.09.74-1.79v-5.58c0-2.25.81-3.37,2.42-3.37,1.4,0,2.11.91,2.11,2.74v6.21c0,.7.25,1.3.74,1.79s1.09.74,1.79.74,1.3-.25,1.79-.74.74-1.09.74-1.79v-7.05c0-3.86-1.72-5.79-5.16-5.79-2.11,0-3.58.88-4.42,2.63v-6.32M962.89,768.69c0-.98-.63-1.79-1.89-2.42-1.19-.63-2.49-.95-3.89-.95-2.03,0-3.65.42-4.84,1.26-1.26.84-1.89,2.03-1.89,3.58,0,2.39,1.65,3.93,4.95,4.63l1.89.32c1.05.21,1.58.6,1.58,1.16,0,.91-.6,1.37-1.79,1.37-.91,0-1.82-.35-2.74-1.05-.91-.7-1.65-1.05-2.21-1.05-1.33,0-2,.74-2,2.21,0,1.05.67,1.86,2,2.42,1.19.49,2.77.74,4.74.74,2.46,0,4.25-.42,5.37-1.26.91-.77,1.37-1.96,1.37-3.58,0-2.46-1.54-4.03-4.63-4.74l-2.11-.42c-1.12-.21-1.68-.6-1.68-1.16,0-.77.6-1.16,1.79-1.16.98,0,1.82.28,2.53.84.7.63,1.33.95,1.89.95.49,0,.88-.18,1.16-.53.28-.35.42-.74.42-1.16M896.05,765.32c-2.53,0-4.49.77-5.89,2.32-1.33,1.4-2,3.23-2,5.47,0,2.46.63,4.35,1.89,5.68,1.26,1.4,3.16,2.11,5.68,2.11,1.68,0,3.09-.28,4.21-.84,1.4-.63,2.11-1.54,2.11-2.74,0-1.4-.7-2.11-2.11-2.11-.63,0-1.3.35-2,1.05s-1.4,1.05-2.11,1.05c-1.75,0-2.63-1.4-2.63-4.21s.88-4.21,2.63-4.21c.7,0,1.4.32,2.11.95.63.63,1.26.95,1.89.95,1.26,0,1.89-.67,1.89-2,0-1.19-.63-2.1-1.89-2.74-1.05-.49-2.32-.74-3.79-.74M866.37,767.53c-1.4-1.47-3.33-2.21-5.79-2.21s-4.39.74-5.79,2.21c-1.33,1.4-2,3.26-2,5.58,0,2.32.67,4.18,2,5.58,1.4,1.47,3.3,2.21,5.68,2.21s4.39-.74,5.79-2.21c1.4-1.4,2.11-3.26,2.11-5.58s-.67-4.18-2-5.58M857.85,773.11c0-2.81.91-4.21,2.74-4.21s2.74,1.4,2.74,4.21c0,2.81-.91,4.21-2.74,4.21s-2.74-1.4-2.74-4.21M875,766.17c-.49-.49-1.05-.74-1.68-.74s-1.19.25-1.68.74c-.42.49-.63,1.05-.63,1.68v10.31c0,.7.25,1.3.74,1.79s1.09.74,1.79.74,1.3-.25,1.79-.74.74-1.09.74-1.79v-5.58c0-2.25.81-3.37,2.42-3.37,1.4,0,2.11.91,2.11,2.74v6.21c0,.7.25,1.3.74,1.79s1.09.74,1.79.74,1.3-.25,1.79-.74.74-1.09.74-1.79v-7.05c0-3.79-1.72-5.68-5.16-5.68-2.25,0-3.86.91-4.84,2.74v-.32c0-.63-.21-1.19-.63-1.68M921.42,767.74v16.52c0,.63.25,1.19.74,1.68.49.56,1.09.84,1.79.84s1.3-.28,1.79-.84c.49-.49.74-1.05.74-1.68v-4.84c.98.91,2.18,1.37,3.58,1.37,2.03,0,3.65-.7,4.84-2.11,1.26-1.47,1.89-3.44,1.89-5.89,0-2.11-.49-3.86-1.47-5.26-1.05-1.4-2.53-2.11-4.42-2.11-2.03,0-3.65.84-4.84,2.53v-.21c0-.63-.25-1.16-.74-1.58-.42-.49-.95-.74-1.58-.74s-1.19.25-1.68.74c-.42.42-.63.95-.63,1.58M927.1,769.95c.49-.7,1.16-1.05,2-1.05,1.75,0,2.63,1.4,2.63,4.21,0,1.4-.28,2.49-.84,3.26-.49.7-1.12,1.05-1.89,1.05-1.82,0-2.74-1.44-2.74-4.32,0-1.4.28-2.46.84-3.16M916.89,767.53c-1.4-1.47-3.23-2.21-5.47-2.21s-4.18.74-5.58,2.21c-1.4,1.47-2.11,3.33-2.11,5.58,0,2.39.74,4.28,2.21,5.68,1.47,1.4,3.51,2.11,6.1,2.11,1.47,0,2.74-.25,3.79-.74,1.12-.56,1.68-1.37,1.68-2.42,0-.56-.18-1.05-.53-1.47-.42-.35-.91-.53-1.47-.53-.49,0-1.09.25-1.79.74-.7.56-1.4.84-2.11.84-.84,0-1.54-.25-2.11-.74-.56-.56-.88-1.26-.95-2.11h8c.84,0,1.44-.21,1.79-.63.28-.42.42-1.02.42-1.79,0-1.75-.63-3.26-1.89-4.53M913.1,769.43c.49.49.77,1.16.84,2h-5.37c.07-.84.35-1.51.84-2s1.12-.74,1.89-.74,1.37.25,1.79.74M941.42,762.17c-.42.42-.67.91-.74,1.47l-.11,2.11h-.95c-.42,0-.81.14-1.16.42-.28.35-.42.77-.42,1.26,0,.42.14.81.42,1.16.35.28.74.42,1.16.42h.84v6.53c-.07,1.82.25,3.12.95,3.89.77.91,2.03,1.37,3.79,1.37,1.12,0,1.93-.07,2.42-.21.84-.35,1.26-.95,1.26-1.79,0-.77-.67-1.33-2-1.68-.98-.28-1.47-.95-1.47-2v-6.1h1.47c.49,0,.88-.14,1.16-.42.35-.35.53-.77.53-1.26,0-.42-.18-.81-.53-1.16-.28-.28-.67-.42-1.16-.42h-1.58v-1.89c0-.63-.21-1.19-.63-1.68-.49-.42-1.05-.63-1.68-.63-.56,0-1.09.21-1.58.63Z"/></g></svg>